<?xml version="1.0" encoding="UTF-8"?>
<svg version="1.1" xmlns="http://www.w3.org/2000/svg" width="512" height="512">
<path d="M0 0 C8.12190637 5.05868737 12.27590356 12.95734993 16.359375 21.34375 C16.70379639 22.04975342 17.04821777 22.75575684 17.40307617 23.4831543 C18.07796606 24.88056023 18.74270757 26.28292643 19.39575195 27.69067383 C22.47495503 34.11206398 26.482086 38.88721544 33.375 41.3125 C39.43749709 42.07496129 45.18752478 41.96365409 50.546875 38.8046875 C56.74952369 33.74184178 59.9683481 26.24227147 63.375 19.1875 C67.87304583 9.90704912 72.43408085 3.1375928 82.375 -0.6875 C89.53575671 -3.0744189 98.91688476 -2.87558261 105.8125 0.25 C122.58215113 10.28407224 128.52207761 32.18218799 133.05029297 49.96435547 C138.1342888 70.76727447 140.90184692 92.06290843 143.375 113.3125 C144.03806152 113.46283691 144.70112305 113.61317383 145.38427734 113.76806641 C202.7219759 126.87184516 202.7219759 126.87184516 217.6875 147.5 C220.07648055 151.9477768 220.04308273 156.39150038 219.375 161.3125 C217.66218601 166.09034956 215.10199754 168.92432042 211.375 172.3125 C210.91738281 172.77398437 210.45976562 173.23546875 209.98828125 173.7109375 C190.31770078 192.4401048 155.50616954 197.08965848 129.9375 201.5 C128.9185112 201.68104782 128.9185112 201.68104782 127.87893677 201.86575317 C100.36340729 206.7010052 72.67125122 207.82050348 44.80029297 207.70361328 C40.69681605 207.68652267 36.59392325 207.69671812 32.49046612 207.71392632 C4.63146208 207.81297992 -22.95984923 206.33944389 -50.4375 201.4375 C-51.95767938 201.17438096 -53.47786173 200.9112791 -54.99804688 200.64819336 C-118.86035111 189.43787077 -118.86035111 189.43787077 -135.3046875 168.13671875 C-138.70640536 162.880392 -140.1474513 158.68640585 -139.625 152.3125 C-136.97514483 142.95222024 -128.60460917 136.83742864 -120.53271484 132.19091797 C-102.576377 122.42635743 -82.57433658 117.21669806 -62.625 113.3125 C-62.53524902 112.56081543 -62.44549805 111.80913086 -62.35302734 111.03466797 C-51.70802673 23.34266415 -51.70802673 23.34266415 -26.6171875 1.6875 C-19.48920554 -3.2322052 -7.8438476 -3.70445575 0 0 Z " fill="#FFFFFF" transform="translate(215.625,35.6875)"/>
<path d="M0 0 C2.2890625 2.1328125 2.2890625 2.1328125 4.625 5.125 C5.26187744 5.92719971 5.26187744 5.92719971 5.91162109 6.74560547 C7.28866021 8.48637181 8.64394437 10.2428575 10 12 C10.93589316 13.1887668 11.87339829 14.37626626 12.8125 15.5625 C14.68735861 17.93419939 16.55423321 20.31181001 18.4140625 22.6953125 C20.58892303 25.48021426 22.78710082 28.24516633 25 31 C25.93392578 32.16982422 25.93392578 32.16982422 26.88671875 33.36328125 C28.04089529 34.80333516 29.19690876 36.24195278 30.36181641 37.67333984 C31.85255994 39.50570178 33.33283673 41.34618447 34.8125 43.1875 C35.28107422 43.75791016 35.74964844 44.32832031 36.23242188 44.91601562 C39.30021104 48.75630163 41.36747059 52.34673591 43 57 C42.4573057 60.9539156 41.69963043 62.45323938 38.55078125 64.9140625 C34.21102677 67.6758429 29.40498209 69.34518524 24.625 71.1875 C9.11867276 77.35947276 -4.81738137 85.11927523 -17.5625 96 C-20 98 -20 98 -22 98 C-22 98.66 -22 99.32 -22 100 C-23.6796875 101.62109375 -23.6796875 101.62109375 -25.875 103.4375 C-30.53205604 107.26615101 -30.53205604 107.26615101 -32.375 112.875 C-31.85039128 117.24673936 -29.79311551 119.55925755 -26.375 122.30566406 C-24.54235496 123.6342319 -22.6872638 124.91910811 -20.8125 126.1875 C-14.12414188 130.75171625 -14.12414188 130.75171625 -13 133 C-12.41347437 140.27291779 -12.41347437 140.27291779 -14.58520508 142.96508789 C-17.51464149 145.4336808 -20.47068901 146.49618979 -24.0625 147.62890625 C-24.75718887 147.85934128 -25.45187775 148.08977631 -26.1676178 148.32719421 C-27.66220324 148.82257452 -29.15840893 149.31308805 -30.65603638 149.79919434 C-34.65500965 151.10144959 -38.63752171 152.45228684 -42.62109375 153.80078125 C-43.4242955 154.07207855 -44.22749725 154.34337585 -45.05503845 154.62289429 C-97.47249889 172.4001758 -149.58442422 199.0393376 -193.44360352 232.85351562 C-196.95083249 235.43703677 -199.69065931 235.43823804 -204 235 C-206.9375 233 -206.9375 233 -209 230 C-209.64249165 223.35851326 -208.08190822 218.56949958 -205.5 212.5 C-205.13616211 211.6234375 -204.77232422 210.746875 -204.39746094 209.84375 C-193.50062583 183.96964282 -178.7330168 161.7014131 -160.36791992 140.58911133 C-158.98742045 138.98538635 -157.63138466 137.36371106 -156.28125 135.734375 C-151.11946561 129.54730467 -145.02643984 124.32183545 -139 119 C-138.05253906 118.15179688 -137.10507812 117.30359375 -136.12890625 116.4296875 C-118.03809642 100.49016963 -78.6579219 69 -53 69 C-53.00999275 68.07371796 -53.00999275 68.07371796 -53.02018738 67.12872314 C-53.08652731 60.70500898 -53.13179508 54.28139205 -53.16479492 47.85742188 C-53.17988682 45.45959521 -53.2003625 43.06179617 -53.22631836 40.6640625 C-53.26268311 37.21868067 -53.27972248 33.77366363 -53.29296875 30.328125 C-53.30845261 29.25508118 -53.32393646 28.18203735 -53.33988953 27.07647705 C-53.34022942 25.57537384 -53.34022942 25.57537384 -53.34057617 24.04394531 C-53.35056892 22.72490204 -53.35056892 22.72490204 -53.36076355 21.37921143 C-52.92284992 18.49120038 -51.96645898 17.12789088 -50 15 C-48.07739258 14.27392578 -48.07739258 14.27392578 -45.89453125 13.9453125 C-45.08346924 13.80875244 -44.27240723 13.67219238 -43.43676758 13.53149414 C-42.57075928 13.39735107 -41.70475098 13.26320801 -40.8125 13.125 C-28.75600853 10.98750974 -17.27018999 7.60268924 -6.89453125 0.8828125 C-4.30894812 -0.32201593 -2.82268909 -0.50142716 0 0 Z " fill="#FFFFFF" transform="translate(438,240)"/>
<path d="M0 0 C4.50943008 0.91158778 8.91909862 2.06160394 13.33154297 3.35083008 C15.38344153 3.93992353 17.44524097 4.4744201 19.51171875 5.00976562 C28.92382571 7.61941426 28.92382571 7.61941426 31.43188477 10.83691406 C32.2453476 13.22189557 32.6172631 15.50926948 33 18 C33.63312355 20.19288181 34.29578604 22.37735297 34.98046875 24.5546875 C35.33560547 25.73708008 35.69074219 26.91947266 36.05664062 28.13769531 C46.55811494 62.84334489 62.3677937 93.61146654 87.41796875 120.109375 C89 122 89 122 89 124 C89.66 124 90.32 124 91 124 C92.46069336 125.49291992 92.46069336 125.49291992 94.15234375 127.54296875 C97.72760784 131.74258792 101.52984112 135.55498842 105.5625 139.3125 C106.24997314 139.95695068 106.93744629 140.60140137 107.64575195 141.26538086 C112.67460695 145.91916348 117.88322521 150.25267885 123.39477539 154.32348633 C132.52582913 161.16591721 132.52582913 161.16591721 133.5078125 167.03515625 C132.13804072 175.03251609 125.4144235 182.20782602 120 188 C117.17148522 189.41425739 115.14919868 189.22723998 112 189 C108.89477539 187.84179688 108.89477539 187.84179688 105.59765625 186.21875 C105.00320206 185.92974319 104.40874786 185.64073639 103.79627991 185.3429718 C101.87909079 184.40687293 99.97086399 183.45394307 98.0625 182.5 C96.73654263 181.84778389 95.41020613 181.19633801 94.08349609 180.5456543 C86.53476589 176.82913856 79.0799541 172.96770252 71.69140625 168.94140625 C67.22518495 166.55146739 62.64128655 164.41384393 58.0625 162.25 C47.51848575 157.243642 37.01941227 152.14684764 26.55490112 146.97644043 C24.73358938 146.07890786 22.91012923 145.18572125 21.08450317 144.29699707 C18.49446694 143.03507473 15.91259496 141.7577215 13.33203125 140.4765625 C12.16000153 139.9113942 12.16000153 139.9113942 10.96429443 139.33480835 C6.63310028 137.16105256 3.63702546 135.23209383 1 131 C0.50768907 126.97946074 0.84336413 124.40084887 3 121 C5.53125 118.859375 5.53125 118.859375 8.5 116.75 C9.4796875 116.04359375 10.459375 115.3371875 11.46875 114.609375 C14 113 14 113 16 113 C16.30556226 111.61135566 16.56800808 110.21318736 16.8125 108.8125 C17.03873047 107.64654297 17.03873047 107.64654297 17.26953125 106.45703125 C16.86183768 102.74052033 14.71801148 101.46840774 12 99 C10.16954022 97.72723387 8.29518744 96.51578456 6.38671875 95.36328125 C5.31196289 94.7089209 4.23720703 94.05456055 3.12988281 93.38037109 C1.98243671 92.69105603 0.83497545 92.0017662 -0.3125 91.3125 C-1.49821049 90.59276483 -2.68342857 89.87221786 -3.86816406 89.15087891 C-6.19971283 87.73184242 -8.5329246 86.31561636 -10.86767578 84.90185547 C-16.55407599 81.44923991 -22.19195195 77.92051348 -27.81982422 74.37353516 C-29.46373525 73.3378528 -31.10878939 72.30398454 -32.75439453 71.27099609 C-35.77652434 69.37251019 -38.7948754 67.46813725 -41.8125 65.5625 C-42.77510742 64.95841309 -43.73771484 64.35432617 -44.72949219 63.73193359 C-45.62958008 63.16168457 -46.52966797 62.59143555 -47.45703125 62.00390625 C-48.6632312 61.24315796 -48.6632312 61.24315796 -49.89379883 60.46704102 C-53.38343755 58.03638852 -54.78499321 56.82931192 -55.875 52.625 C-56.03566048 47.965846 -54.68755016 45.88554407 -51.60113525 42.43701172 C-49.86834765 40.6367605 -48.10179957 38.87706591 -46.3203125 37.125 C-45.34564529 36.15457764 -45.34564529 36.15457764 -44.35128784 35.16455078 C-42.28052573 33.10493766 -40.20292163 31.05238723 -38.125 29 C-36.73521578 27.62025617 -35.34588802 26.2400524 -33.95703125 24.859375 C-31.39881483 22.31744807 -28.83798554 19.77821973 -26.27392578 17.2421875 C-21.79730587 12.81064346 -17.4265894 8.4226806 -13.4296875 3.55078125 C-9.46622915 -0.74837986 -5.44107987 -0.59311669 0 0 Z " fill="#FFFFFF" transform="translate(86,240)"/>
<path d="M0 0 C4.19941025 8.03365438 5.4369879 15.69372824 3.38671875 24.69140625 C-0.15940065 34.67365426 -7.72966492 42.11930994 -17 47 C-31.59080788 53.26180476 -49.08591654 54.8012601 -64.19921875 49.2734375 C-68.73170035 47.21264391 -72.89726576 44.81484586 -77 42 C-77.9075 41.401875 -78.815 40.80375 -79.75 40.1875 C-85.69803572 34.40468749 -89.77235667 27.507338 -90.1953125 19.1328125 C-90.18221369 17.79673363 -90.15865184 16.46071923 -90.125 15.125 C-90.11146484 14.09246094 -90.11146484 14.09246094 -90.09765625 13.0390625 C-90.07432513 11.35922162 -90.03846326 9.67956254 -90 8 C-86.89975684 6.44987842 -83.58156726 6.7206868 -80.171875 6.60546875 C-78.50501797 6.53901889 -76.8381896 6.47184721 -75.17138672 6.40405273 C-74.28771423 6.36915741 -73.40404175 6.33426208 -72.49359131 6.29830933 C-56.89401249 5.66826694 -41.39590383 4.63468025 -25.875 2.9375 C-25.06848999 2.8495517 -24.26197998 2.76160339 -23.43103027 2.67098999 C-17.3285878 1.99941474 -11.22950393 1.3224419 -5.15283203 0.44360352 C-2 0 -2 0 0 0 Z " fill="#FFFFFF" transform="translate(359,255)"/>
<path d="M0 0 C6.87206751 -0.18281195 13.49572062 0.54946913 20.3125 1.375 C40.36743365 3.69050284 60.41016015 5.16649319 80.59765625 5.57080078 C81.67015625 5.59899902 82.74265625 5.62719727 83.84765625 5.65625 C84.79648682 5.67494141 85.74531738 5.69363281 86.72290039 5.71289062 C89 6 89 6 91 8 C92.42608265 17.95515386 90.57119339 25.7111513 85 34 C78.61060193 42.31709968 69.02921662 47.41361575 59 50 C58.29488281 50.18304688 57.58976562 50.36609375 56.86328125 50.5546875 C41.29958296 52.97523539 25.65028693 51.38648955 12.28125 42.68359375 C4.82557134 37.18120077 -0.50057679 31.08355194 -3 22 C-3.91252478 14.05927952 -3.46795639 7.22490916 0 0 Z " fill="#FFFFFF" transform="translate(151,256)"/>
</svg>
